# xmcd
#
# Track frame offsets:
#	150
#	11072
#	26460
#	38902
#	53757
#	72607
#	92390
#	114707
#	128600
#	148105
#	179185
#
# Disc length: 2441 seconds
#
# Revision: 1
# Processed by: cddbd v1.5.1PL0 Copyright (c) Steve Scherf et al.
# Submitted via: audiograbber 1.83.01
#
DISCID=9b09870b
DTITLE=Ernie Haase and Signature Sound - Christmas With Ernie Haase and Signature S
DTITLE=ound
DYEAR=2004
DGENRE=Southern Gospel
TTITLE0=Is It Christmas Yet?
TTITLE1=A Quartet Christmas
TTITLE2=Tonight
TTITLE3=The First Noel
TTITLE4=Come Make A Place In Me
TTITLE5=Who Do You Think?
TTITLE6=Christmas Medley
TTITLE7=Glory To God In The Highest
TTITLE8=The Night Heaven Kissed Earth
TTITLE9=Have Yourself A Merry Little Christmas
TTITLE10=Data Track
EXTD=
EXTT0=
EXTT1=
EXTT2=
EXTT3=
EXTT4=
EXTT5=
EXTT6=
EXTT7=
EXTT8=
EXTT9=
EXTT10=
PLAYORDER=
